<svg width="226" height="182" viewBox="0 0 226 182" fill="none" xmlns="http://www.w3.org/2000/svg">
<g filter="url(#filter0_d_33_274)">
<path d="M12.9224 19.6615L23.5928 6.78223V152.547L213.213 152.188L202.987 163.209H12.9224V19.6615Z" fill="#FE9016"/>
<rect width="189.488" height="145.951" transform="translate(23.7253 6.78223)" fill="#EEF4F6"/>
<rect x="29.7478" y="12.8047" width="177.442" height="133.906" rx="1.80676" fill="#343C3F"/>
<path d="M105.675 41.8584H90.4298V94.8963C90.4298 94.8963 90.4145 103.651 82.9143 104.13C72.8221 104.774 73.4039 93.8226 73.4039 93.8226L58.4353 94.0374C58.4353 109.713 68.4229 117.657 82.9143 117.657C106.534 117.657 105.675 94.8963 105.675 94.8963V41.8584Z" fill="#EEF4F6"/>
<path fill-rule="evenodd" clip-rule="evenodd" d="M123.747 42.1809H151.018C168.411 42.1809 178.503 51.1995 178.503 65.3716C178.503 79.5437 167.337 88.5622 151.018 88.5622H138.778V117.335H123.747V73.1007H123.747V42.1809ZM138.786 54.204H150.977C158.753 54.204 163.265 58.4628 163.265 65.1551C163.265 71.8475 159.614 76.1062 150.977 76.1062H138.786V54.204Z" fill="#EEF4F6"/>
</g>
<defs>
<filter id="filter0_d_33_274" x="0.877275" y="0.759682" width="224.381" height="180.516" filterUnits="userSpaceOnUse" color-interpolation-filters="sRGB">
<feFlood flood-opacity="0" result="BackgroundImageFix"/>
<feColorMatrix in="SourceAlpha" type="matrix" values="0 0 0 0 0 0 0 0 0 0 0 0 0 0 0 0 0 0 127 0" result="hardAlpha"/>
<feOffset dy="6.02254"/>
<feGaussianBlur stdDeviation="6.02254"/>
<feComposite in2="hardAlpha" operator="out"/>
<feColorMatrix type="matrix" values="0 0 0 0 0 0 0 0 0 0 0 0 0 0 0 0 0 0 0.45 0"/>
<feBlend mode="normal" in2="BackgroundImageFix" result="effect1_dropShadow_33_274"/>
<feBlend mode="normal" in="SourceGraphic" in2="effect1_dropShadow_33_274" result="shape"/>
</filter>
</defs>
</svg>
