<svg width="244" height="118" viewBox="0 0 244 118" fill="none" xmlns="http://www.w3.org/2000/svg">
<g filter="url(#filter0_d_4_419)">
<path d="M2 6.47344L7.14219 1.33125V109.231L241.969 108.974L236.858 114.117H2V6.47344Z" fill="#FE9016"/>
<rect x="7.14224" y="1.33125" width="234.858" height="107.643" fill="#EEF4F6"/>
<rect x="12.4264" y="6.22437" width="225.072" height="97.8574" fill="#343C3F"/>
<path d="M46.7743 19.0438H39.8264V43.2146C39.8264 43.2146 39.8194 47.2042 36.4014 47.4224C31.8021 47.716 32.0672 42.7253 32.0672 42.7253L25.2457 42.8231C25.2457 49.9667 29.7973 53.5874 36.4014 53.5874C47.1657 53.5874 46.7743 43.2146 46.7743 43.2146V19.0438Z" fill="#EEF4F6"/>
<path fill-rule="evenodd" clip-rule="evenodd" d="M69.2818 53.7833C72.7999 53.7833 75.9508 52.0975 78.1867 49.4205V53.1969H85.0367V25.9926H78.1867V29.9632C75.9508 27.2863 72.7999 25.6004 69.2818 25.6004C62.4181 25.6004 56.8539 30.689 56.8539 39.6919C56.8539 48.2055 62.4181 53.7833 69.2818 53.7833ZM71.1696 47.7152C75.1848 47.7152 78.3825 44.061 78.3825 39.6909C78.3825 35.3207 75.1848 31.6666 71.1696 31.6666C67.1545 31.6666 63.8996 34.5642 63.8996 39.6909C63.8996 44.5389 67.1545 47.7152 71.1696 47.7152Z" fill="#EEF4F6"/>
<path fill-rule="evenodd" clip-rule="evenodd" d="M107.402 53.7833C113.546 53.7833 118.532 50.0935 120.123 44.0114C120.116 44.037 120.112 44.05 120.112 44.05H112.772C111.943 46.3508 110.254 47.7165 107.374 47.7165C102.945 47.7165 100.988 44.5015 100.988 39.5943C100.988 34.995 103.043 31.4722 107.374 31.4722C110.054 31.4722 111.861 32.7989 112.758 35.2443H120.123C120.123 35.2443 120.132 35.271 120.147 35.3253C118.582 29.0616 113.577 25.6004 107.402 25.6004C99.914 25.6004 93.844 30.689 93.844 39.6919C93.844 48.2055 99.914 53.7833 107.402 53.7833Z" fill="#EEF4F6"/>
<path fill-rule="evenodd" clip-rule="evenodd" d="M135.923 16.9882H129.073V53.1954H135.923V41.6342L145.121 53.1957H154.026L141.99 39.6914L153.928 26.0892L145.023 26.0892L135.923 37.5893V16.9882Z" fill="#EEF4F6"/>
<path fill-rule="evenodd" clip-rule="evenodd" d="M186.703 41.6494C186.773 41.0167 186.808 40.3638 186.808 39.6919C186.808 30.689 180.957 25.6004 173.36 25.6004C165.763 25.6004 159.604 30.689 159.604 39.6919C159.604 48.2055 165.763 53.7833 173.36 53.7833C179.361 53.7833 184.273 50.364 186.072 44.6829H178.755C177.957 46.2808 176.378 47.913 173.254 47.913C167.135 47.913 166.65 41.6501 166.65 41.6501H177.023V41.6494H186.703ZM179.763 37.1491C179.763 37.1491 179.567 31.2777 173.402 31.2777C167.237 31.2777 166.748 37.1491 166.748 37.1491H179.763Z" fill="#EEF4F6"/>
<path fill-rule="evenodd" clip-rule="evenodd" d="M215.187 16.7936H222.037V53.1966H215.187V49.4208C212.951 52.0978 209.8 53.7837 206.282 53.7837C199.418 53.7837 193.854 48.2058 193.854 39.6923C193.854 30.6894 199.418 25.6008 206.282 25.6008C209.8 25.6008 212.951 27.2867 215.187 29.9637V16.7936ZM208.17 47.7153C212.185 47.7153 215.383 44.0611 215.383 39.691C215.383 35.3208 212.185 31.6667 208.17 31.6667C204.155 31.6667 200.9 34.5643 200.9 39.691C200.9 44.539 204.155 47.7153 208.17 47.7153Z" fill="#EEF4F6"/>
<path fill-rule="evenodd" clip-rule="evenodd" d="M22.4079 60.633H34.8358C42.7622 60.633 47.3615 64.743 47.3615 71.2016C47.3615 77.6602 42.2729 81.7702 34.8358 81.7702H29.2579V94.8833H22.4079V74.7247H22.4079V60.633ZM29.2579 76.0939V74.7247H29.2579V66.1125H34.8139C38.3574 66.1125 40.4136 68.0533 40.4136 71.1032C40.4136 74.1531 38.75 76.0939 34.8139 76.0939H29.2579Z" fill="#EEF4F6"/>
<rect x="55.6794" y="58.676" width="6.85002" height="36.2072" fill="#EEF4F6"/>
<path fill-rule="evenodd" clip-rule="evenodd" d="M83.373 95.274C86.8912 95.274 90.0422 93.5881 92.2781 90.911V94.6875H99.1281V67.4831H92.2781V71.4542C90.0422 68.7771 86.8912 67.0911 83.373 67.0911C76.5092 67.0911 70.9451 72.1797 70.9451 81.1826C70.9451 89.6962 76.5092 95.274 83.373 95.274ZM85.261 89.2052C89.2762 89.2052 92.4738 85.5511 92.4738 81.1809C92.4738 76.8108 89.2762 73.1566 85.261 73.1566C81.2459 73.1566 77.991 76.0543 77.991 81.1809C77.991 86.029 81.2459 89.2052 85.261 89.2052Z" fill="#EEF4F6"/>
<path fill-rule="evenodd" clip-rule="evenodd" d="M116.155 79.0636V94.6905H109.305V67.6819H116.155V71.0255C117.212 69.5909 119.848 67.0793 125.256 67.2901C131.025 67.5149 135.14 71.9872 135.14 78.8372V94.6901H128.29V79.3265C128.29 75.9994 126.235 73.1615 122.125 73.1615C117.644 73.1615 116.457 76.3321 116.155 79.0636Z" fill="#EEF4F6"/>
<path fill-rule="evenodd" clip-rule="evenodd" d="M151.971 79.064V94.6905H145.121V67.6819H151.971V71.0256C153.028 69.591 155.663 67.0793 161.072 67.2901C166.841 67.5149 170.955 71.9872 170.955 78.8372V94.6901H164.105V79.3265C164.105 75.9994 162.05 73.1615 157.94 73.1615C153.46 73.1615 152.272 76.3324 151.971 79.064Z" fill="#EEF4F6"/>
<path fill-rule="evenodd" clip-rule="evenodd" d="M206.079 83.338C206.148 82.7053 206.184 82.0526 206.184 81.3807C206.184 72.3779 200.332 67.2893 192.735 67.2893C185.138 67.2893 178.98 72.3779 178.98 81.3807C178.98 89.8943 185.138 95.4722 192.735 95.4722C198.736 95.4722 203.648 92.0528 205.447 86.3715H198.131C197.333 87.9695 195.753 89.6018 192.63 89.6018C186.511 89.6018 186.025 83.339 186.025 83.339H196.398V83.338H206.079ZM199.138 78.8348C199.138 78.8348 198.943 72.9633 192.778 72.9633C186.613 72.9633 186.123 78.8348 186.123 78.8348H199.138Z" fill="#EEF4F6"/>
<path fill-rule="evenodd" clip-rule="evenodd" d="M221.254 80.4273V94.6856H214.404V67.677H221.254V71.8108C221.85 71.0005 222.67 70.0915 223.798 69.1439C226.245 67.0889 229.67 67.2846 229.67 67.2846V74.5261C229.67 74.5261 225.951 74.2107 223.798 75.4068C222.163 76.3154 221.497 78.4263 221.254 80.4273Z" fill="#EEF4F6"/>
</g>
<defs>
<filter id="filter0_d_4_419" x="0" y="0.331253" width="244" height="116.785" filterUnits="userSpaceOnUse" color-interpolation-filters="sRGB">
<feFlood flood-opacity="0" result="BackgroundImageFix"/>
<feColorMatrix in="SourceAlpha" type="matrix" values="0 0 0 0 0 0 0 0 0 0 0 0 0 0 0 0 0 0 127 0" result="hardAlpha"/>
<feOffset dy="1"/>
<feGaussianBlur stdDeviation="1"/>
<feComposite in2="hardAlpha" operator="out"/>
<feColorMatrix type="matrix" values="0 0 0 0 0 0 0 0 0 0 0 0 0 0 0 0 0 0 0.45 0"/>
<feBlend mode="normal" in2="BackgroundImageFix" result="effect1_dropShadow_4_419"/>
<feBlend mode="normal" in="SourceGraphic" in2="effect1_dropShadow_4_419" result="shape"/>
</filter>
</defs>
</svg>
