<svg width="233" height="58" viewBox="0 0 233 58" fill="none" xmlns="http://www.w3.org/2000/svg">
<g filter="url(#filter0_d_19_2100)">
<path fill-rule="evenodd" clip-rule="evenodd" d="M118.673 4.75061H134.873C145.204 4.75061 151.199 10.1079 151.199 18.5263C151.199 26.9448 144.567 32.302 134.873 32.302H127.602V49.394H118.673V23.1182H118.673V4.75061ZM127.602 24.9029V23.1182H127.601V11.8925H134.843C139.462 11.8925 142.142 14.4223 142.142 18.3977C142.142 22.3731 139.974 24.9029 134.843 24.9029H127.602Z" fill="#FE9016"/>
<path fill-rule="evenodd" clip-rule="evenodd" d="M169.088 4.75067H152.889V32.3021H152.889V49.394H161.817V32.3021H166.226L175.844 49.3415H186.236L175.697 31.3434C181.671 29.4482 185.415 24.8513 185.415 18.5264C185.415 10.1079 179.42 4.75067 169.088 4.75067ZM161.817 23.1182V24.9029H169.059C174.19 24.9029 176.358 22.3732 176.358 18.3978C176.358 14.4224 173.678 11.8926 169.059 11.8926H161.817V23.1182H161.817Z" fill="#FE9016"/>
<path fill-rule="evenodd" clip-rule="evenodd" d="M209.297 49.9031C221.835 49.9031 232 39.7099 232 27.136C232 14.5622 221.835 4.36902 209.297 4.36902C196.758 4.36902 186.593 14.5622 186.593 27.136C186.593 39.7099 196.758 49.9031 209.297 49.9031ZM209.296 42.3989C216.847 42.3989 222.969 35.6225 222.969 27.2633C222.969 18.9042 216.847 12.1277 209.296 12.1277C201.745 12.1277 195.623 18.9042 195.623 27.2633C195.623 35.6225 201.745 42.3989 209.296 42.3989Z" fill="#FE9016"/>
</g>
<g filter="url(#filter1_d_19_2100)">
<path d="M2 4.24357L4.38359 1.85999V51.8756L113.234 51.7564L110.865 54.14H2V4.24357Z" fill="#FE9016"/>
<rect x="4.38281" y="1.85999" width="108.865" height="49.8964" fill="#EEF4F6"/>
<rect x="6.83203" y="4.1283" width="104.329" height="45.3604" fill="#343C3F"/>
<path d="M22.7532 10.0704H19.5326V21.2744C19.5326 21.2744 19.5294 23.1238 17.945 23.2249C15.8131 23.361 15.936 21.0476 15.936 21.0476L12.7739 21.093C12.7739 24.4043 14.8838 26.0826 17.945 26.0826C22.9347 26.0826 22.7532 21.2744 22.7532 21.2744V10.0704Z" fill="#EEF4F6"/>
<path fill-rule="evenodd" clip-rule="evenodd" d="M33.1865 26.1735C34.818 26.1735 36.2792 25.3913 37.3157 24.1495V25.9017H40.4909V13.2915H37.3157V15.1336C36.2792 13.8918 34.818 13.1097 33.1865 13.1097C30.005 13.1097 27.4258 15.4684 27.4258 19.6416C27.4258 23.5879 30.005 26.1735 33.1865 26.1735ZM34.0611 23.3597C35.922 23.3597 37.404 21.6661 37.404 19.6407C37.404 17.6153 35.922 15.9217 34.0611 15.9217C32.2002 15.9217 30.6916 17.2647 30.6916 19.6407C30.6916 21.8876 32.2002 23.3597 34.0611 23.3597Z" fill="#EEF4F6"/>
<path fill-rule="evenodd" clip-rule="evenodd" d="M57.0005 19.6625V19.8024C57.0015 19.7491 57.002 19.6955 57.002 19.6416C57.002 19.5852 57.0015 19.5292 57.0005 19.4735V19.5341C57.0007 19.5399 57.0009 19.5458 57.0011 19.5517C57.0011 19.5891 57.0009 19.626 57.0005 19.6625ZM50.8577 26.1735C53.7171 26.1735 56.0353 24.4494 56.7633 21.6101C56.7539 21.644 56.7484 21.6614 56.7484 21.6614H53.3474C52.963 22.7276 52.1802 23.3604 50.8454 23.3604C48.7926 23.3604 47.8855 21.8704 47.8855 19.5961C47.8855 17.4644 48.838 15.8317 50.8454 15.8317C52.0876 15.8317 52.9252 16.4467 53.3407 17.5803H56.7537C56.7537 17.5803 56.7611 17.6028 56.7735 17.6488C56.057 14.7256 53.7305 13.1097 50.8577 13.1097C47.3869 13.1097 44.5732 15.4684 44.5732 19.6416C44.5732 23.5879 47.3869 26.1735 50.8577 26.1735Z" fill="#EEF4F6"/>
<path fill-rule="evenodd" clip-rule="evenodd" d="M64.0771 9.11768H60.9019V25.901H64.0771V20.5417L68.3411 25.9011H72.4689L66.8896 19.6414L72.4236 13.3363L68.2958 13.3363L64.0771 18.6672V9.11768Z" fill="#EEF4F6"/>
<path fill-rule="evenodd" clip-rule="evenodd" d="M87.6167 20.5491C87.6488 20.2558 87.6654 19.9531 87.6654 19.6416C87.6654 15.4684 84.9529 13.1097 81.4314 13.1097C77.9099 13.1097 75.0552 15.4684 75.0552 19.6416C75.0552 23.5879 77.9099 26.1735 81.4314 26.1735C84.2131 26.1735 86.49 24.5885 87.3239 21.9551H83.9316C83.5618 22.6958 82.8297 23.4525 81.3818 23.4525C78.546 23.4525 78.3209 20.5498 78.3209 20.5498H83.1286V20.5491H87.6167ZM84.398 18.463C84.398 18.463 84.3073 15.7417 81.45 15.7417C78.5927 15.7417 78.3659 18.463 78.3659 18.463H84.398Z" fill="#EEF4F6"/>
<path fill-rule="evenodd" clip-rule="evenodd" d="M100.82 9.02759H103.995V25.9016H100.82V24.1524C99.7835 25.3927 98.3232 26.1738 96.6929 26.1738C93.5113 26.1738 90.9321 23.5882 90.9321 19.6419C90.9321 15.4687 93.5113 13.11 96.6929 13.11C98.3232 13.11 99.7835 13.891 100.82 15.1313V9.02759ZM97.5682 23.3597C99.4291 23.3597 100.911 21.6661 100.911 19.6406C100.911 17.6152 99.4291 15.9216 97.5682 15.9216C95.7073 15.9216 94.1987 17.2646 94.1987 19.6406C94.1987 21.8875 95.7073 23.3597 97.5682 23.3597Z" fill="#EEF4F6"/>
<path fill-rule="evenodd" clip-rule="evenodd" d="M11.4585 29.3481H17.2193C20.8935 29.3481 23.0254 31.2532 23.0254 34.247C23.0254 37.2408 20.6666 39.1459 17.2193 39.1459H14.6338V45.2243H11.4586V39.1459H11.4585V29.3481ZM14.635 31.8883H17.21C18.8524 31.8883 19.8054 32.7878 19.8054 34.2014C19.8054 35.6149 19.0343 36.5144 17.21 36.5144H14.635V31.8883Z" fill="#EEF4F6"/>
<rect x="26.8848" y="28.4409" width="3.17523" height="16.7833" fill="#EEF4F6"/>
<path fill-rule="evenodd" clip-rule="evenodd" d="M39.7207 45.4056C41.3507 45.4056 42.8107 44.6249 43.847 43.385V45.1336H47.0222V32.5234H43.847V34.3623C42.8107 33.1225 41.3507 32.3418 39.7207 32.3418C36.5391 32.3418 33.96 34.7005 33.96 38.8737C33.96 42.82 36.5391 45.4056 39.7207 45.4056ZM40.5954 42.5916C42.4563 42.5916 43.9383 40.8981 43.9383 38.8726C43.9383 36.8472 42.4563 35.1536 40.5954 35.1536C38.7345 35.1536 37.2259 36.4966 37.2259 38.8726C37.2259 41.1195 38.7345 42.5916 40.5954 42.5916Z" fill="#EEF4F6"/>
<path fill-rule="evenodd" clip-rule="evenodd" d="M54.9155 37.9019V45.135H51.7402V32.6156H54.9155V34.1669C55.4046 33.5022 56.6262 32.3361 59.1351 32.4339C61.8094 32.5381 63.7165 34.6112 63.7165 37.7864V45.1348H60.5413V38.0132C60.5413 36.471 59.5888 35.1555 57.6836 35.1555C55.6011 35.1555 55.0533 36.6334 54.9155 37.9019Z" fill="#EEF4F6"/>
<path fill-rule="evenodd" clip-rule="evenodd" d="M71.517 37.8974V45.135H68.3418V32.6156H71.517V34.1663C72.0065 33.5015 73.2281 32.3362 75.7362 32.4339C78.4104 32.5381 80.3176 34.6112 80.3176 37.7864V45.1348H77.1424V38.0132C77.1424 36.471 76.1899 35.1555 74.2847 35.1555C72.2047 35.1555 71.6557 36.6299 71.517 37.8974Z" fill="#EEF4F6"/>
<path fill-rule="evenodd" clip-rule="evenodd" d="M96.5977 39.873C96.6298 39.5797 96.6463 39.277 96.6463 38.9655C96.6463 34.7923 93.9338 32.4336 90.4124 32.4336C86.8909 32.4336 84.0361 34.7923 84.0361 38.9655C84.0361 42.9118 86.8909 45.4974 90.4124 45.4974C93.194 45.4974 95.4709 43.9124 96.3048 41.2789H92.9141C92.5443 42.0197 91.8122 42.7765 90.3642 42.7765C87.5284 42.7765 87.3033 39.8738 87.3033 39.8738H92.1105V39.873H96.5977ZM93.3802 37.785C93.3802 37.785 93.2895 35.0638 90.4322 35.0638C87.5749 35.0638 87.3481 37.785 87.3481 37.785H93.3802Z" fill="#EEF4F6"/>
<path fill-rule="evenodd" clip-rule="evenodd" d="M103.633 38.5193V45.1328H100.458V32.6133H103.633V34.5288C103.909 34.1533 104.289 33.7323 104.812 33.2933C105.945 32.3409 107.533 32.4316 107.533 32.4316V35.7878C107.533 35.7878 105.809 35.6416 104.812 36.196C104.054 36.6165 103.746 37.593 103.633 38.5193Z" fill="#EEF4F6"/>
</g>
<defs>
<filter id="filter0_d_19_2100" x="115.673" y="4.36902" width="117.327" height="49.5341" filterUnits="userSpaceOnUse" color-interpolation-filters="sRGB">
<feFlood flood-opacity="0" result="BackgroundImageFix"/>
<feColorMatrix in="SourceAlpha" type="matrix" values="0 0 0 0 0 0 0 0 0 0 0 0 0 0 0 0 0 0 127 0" result="hardAlpha"/>
<feOffset dx="-1" dy="2"/>
<feGaussianBlur stdDeviation="1"/>
<feComposite in2="hardAlpha" operator="out"/>
<feColorMatrix type="matrix" values="0 0 0 0 0 0 0 0 0 0 0 0 0 0 0 0 0 0 0.25 0"/>
<feBlend mode="normal" in2="BackgroundImageFix" result="effect1_dropShadow_19_2100"/>
<feBlend mode="normal" in="SourceGraphic" in2="effect1_dropShadow_19_2100" result="shape"/>
</filter>
<filter id="filter1_d_19_2100" x="0" y="0.859985" width="115.248" height="56.28" filterUnits="userSpaceOnUse" color-interpolation-filters="sRGB">
<feFlood flood-opacity="0" result="BackgroundImageFix"/>
<feColorMatrix in="SourceAlpha" type="matrix" values="0 0 0 0 0 0 0 0 0 0 0 0 0 0 0 0 0 0 127 0" result="hardAlpha"/>
<feOffset dy="1"/>
<feGaussianBlur stdDeviation="1"/>
<feComposite in2="hardAlpha" operator="out"/>
<feColorMatrix type="matrix" values="0 0 0 0 0 0 0 0 0 0 0 0 0 0 0 0 0 0 0.45 0"/>
<feBlend mode="normal" in2="BackgroundImageFix" result="effect1_dropShadow_19_2100"/>
<feBlend mode="normal" in="SourceGraphic" in2="effect1_dropShadow_19_2100" result="shape"/>
</filter>
</defs>
</svg>
