<svg width="26" height="26" viewBox="0 0 26 26" fill="none" xmlns="http://www.w3.org/2000/svg">
<g filter="url(#filter0_d_14_4048)">
<path fill-rule="evenodd" clip-rule="evenodd" d="M24.3402 11.913L21.8863 12.6075C21.6834 13.6702 21.2695 14.6581 20.6899 15.5259L21.9361 17.756C22.132 18.1065 22.0712 18.5444 21.7873 18.8283C21.5034 19.1122 21.0655 19.173 20.715 18.9771L18.4867 17.7319C17.6176 18.3139 16.6277 18.7296 15.5626 18.9333L14.8642 21.401C14.7548 21.7873 14.4022 22.054 14.0007 22.054C13.5992 22.054 13.2466 21.7873 13.1372 21.401L12.4322 18.9098C11.3885 18.6938 10.4194 18.2737 9.56861 17.6931L7.29582 18.9632C6.94534 19.159 6.50741 19.0982 6.22351 18.8143C5.93961 18.5304 5.87883 18.0925 6.07469 17.742L7.36346 15.4358C6.81966 14.5974 6.42913 13.6503 6.23155 12.6343L3.6596 11.9064C3.27328 11.7971 3.00659 11.4445 3.00659 11.043C3.00659 10.6415 3.27328 10.2888 3.6596 10.1795L6.25777 9.44416C6.46799 8.45148 6.86295 7.52701 7.40498 6.70842L6.08079 4.33882C5.88493 3.98834 5.94571 3.55041 6.22961 3.26651C6.51351 2.98261 6.95144 2.92183 7.30192 3.11769L9.67446 4.44352C10.4926 3.90415 11.4161 3.51148 12.4073 3.30299L13.142 0.707059C13.2514 0.320739 13.604 0.0540519 14.0055 0.0540519C14.407 0.0540519 14.7596 0.320737 14.869 0.707059L15.5975 3.28108C16.6124 3.47988 17.5583 3.87129 18.3957 4.41567L20.7055 3.12486C21.056 2.92901 21.494 2.98978 21.7779 3.27368C22.0618 3.55758 22.1225 3.99551 21.9267 4.34599L20.6525 6.62614C21.2305 7.47601 21.6486 8.44343 21.8635 9.48511L24.3402 10.1861C24.7265 10.2954 24.9932 10.648 24.9932 11.0495C24.9932 11.451 24.7265 11.8037 24.3402 11.913ZM8.28355 11.1037C8.28355 7.9154 10.8682 5.33077 14.0565 5.33077C17.2448 5.33077 19.8294 7.9154 19.8294 11.1037C19.8294 14.292 17.2448 16.8766 14.0565 16.8766C10.8682 16.8766 8.28355 14.292 8.28355 11.1037Z" fill="#EEF4F6"/>
</g>
<defs>
<filter id="filter0_d_14_4048" x="0.674316" y="0.0540466" width="25.0962" height="25.1093" filterUnits="userSpaceOnUse" color-interpolation-filters="sRGB">
<feFlood flood-opacity="0" result="BackgroundImageFix"/>
<feColorMatrix in="SourceAlpha" type="matrix" values="0 0 0 0 0 0 0 0 0 0 0 0 0 0 0 0 0 0 127 0" result="hardAlpha"/>
<feOffset dx="-0.777344" dy="1.55469"/>
<feGaussianBlur stdDeviation="0.777344"/>
<feComposite in2="hardAlpha" operator="out"/>
<feColorMatrix type="matrix" values="0 0 0 0 0 0 0 0 0 0 0 0 0 0 0 0 0 0 0.25 0"/>
<feBlend mode="normal" in2="BackgroundImageFix" result="effect1_dropShadow_14_4048"/>
<feBlend mode="normal" in="SourceGraphic" in2="effect1_dropShadow_14_4048" result="shape"/>
</filter>
</defs>
</svg>
