<svg width="198" height="234" viewBox="0 0 198 234" fill="none" xmlns="http://www.w3.org/2000/svg">
<path d="M144 224.884H18C15.6131 224.884 13.3239 223.936 11.636 222.248C9.94821 220.561 9 218.271 9 215.884V53.8844C9 51.4974 9.94821 49.2082 11.636 47.5204C13.3239 45.8326 15.6131 44.8844 18 44.8844H108L153 89.8844V215.884C153 218.271 152.052 220.561 150.364 222.248C148.676 223.936 146.387 224.884 144 224.884Z" stroke="#343C3F" stroke-width="17.3391" stroke-linecap="round" stroke-linejoin="round"/>
<path d="M45 44.8844V17.8844C45 15.4974 45.9482 13.2082 47.636 11.5204C49.3239 9.83258 51.6131 8.88437 54 8.88437H144L189 53.8844V179.884C189 182.271 188.052 184.561 186.364 186.248C184.676 187.936 182.387 188.884 180 188.884H153" stroke="#343C3F" stroke-width="17.3391" stroke-linecap="round" stroke-linejoin="round"/>
<path d="M54.0005 143.884H108" stroke="#343C3F" stroke-width="17.3391" stroke-linecap="round" stroke-linejoin="round"/>
<path d="M54.0005 179.884H108" stroke="#343C3F" stroke-width="17.3391" stroke-linecap="round" stroke-linejoin="round"/>
</svg>
