<svg width="180" height="180" viewBox="0 0 180 180" fill="none" xmlns="http://www.w3.org/2000/svg">
<g clip-path="url(#clip0_157_274)">
<path d="M12.3071 13.3809H102.759V25.8251H12.515V166.836H154.119V77.4087H167.011V166.836C167.011 169.694 166.057 173.299 163.342 176.073C160.558 178.918 157.846 179.936 153.911 179.936H12.515C9.6 179.936 6.59318 178.675 4.06335 176.073C1.62523 173.565 0.454818 170.015 0.454834 167.876C0.455255 112.402 0.455153 81.2996 0.454834 25.8251C0.454814 22.4116 1.26665 20.0888 3.57829 17.4954C6.08586 14.6822 8.99819 13.3809 12.3071 13.3809Z" fill="#343C3F"/>
<path d="M44.5439 134.84L54.276 104.779C54.1319 102.688 54.4059 97.9664 56.655 95.8037C57.1851 95.2939 57.1851 94.7266 57.1851 94.4868C62.1522 98.7851 68.8339 105.852 71.0429 108.341C73.5309 110.55 80.5986 117.232 84.8971 122.199C84.6573 122.199 84.09 122.199 83.5802 122.729C81.4175 124.978 76.6957 125.252 74.6051 125.108L44.5439 134.84Z" fill="#343C3F"/>
<path d="M94.2377 112.128L67.2314 85.1221L130.246 23.0229L156.947 49.7241L94.2377 112.128Z" fill="#343C3F"/>
<path d="M166.864 39.8067L139.73 12.672C139.73 12.672 145.207 7.2226 148.707 3.72196C150.509 1.92032 153.312 0.31928 156.736 0.18244C160.504 0.0318386 163.721 1.72279 165.72 3.72196L177.24 15.2416C178.808 16.8104 179.358 19.3359 179.395 22.1689C179.434 25.127 178.864 27.8071 177.24 29.4314L166.864 39.8067Z" fill="#343C3F"/>
</g>
<defs>
<clipPath id="clip0_157_274">
<rect width="180" height="180" fill="white"/>
</clipPath>
</defs>
</svg>
