<svg width="25" height="26" viewBox="0 0 25 26" fill="none" xmlns="http://www.w3.org/2000/svg">
<g filter="url(#filter0_d_14_4060)">
<rect x="3" y="0.0539551" width="12.8571" height="22.4558" rx="2.24558" fill="#FE9016"/>
</g>
<g filter="url(#filter1_d_14_4060)">
<path d="M17.4063 14.4862L20.3394 11.5972L9.45438 11.5972C9.0963 11.5972 8.71436 11.244 8.71436 10.8673C8.71436 10.5376 9.02469 10.1609 9.43051 10.1609L20.3394 10.1609L17.4063 7.27194C17.1198 6.98939 17.1357 6.55118 17.4063 6.25946C17.7021 5.94059 18.2657 6.00045 18.5283 6.25946L22.464 10.1374C22.464 10.1374 23.0001 10.6454 23.0001 10.8785C23.0001 11.1115 22.464 11.5972 22.464 11.5972L18.5283 15.4751C18.1463 15.8519 17.7644 15.8754 17.3824 15.5222C17.0968 15.2581 17.096 14.7923 17.4063 14.4862Z" fill="#EEF4F6"/>
<path d="M22.543 10.0576L22.5421 10.0567L22.5417 10.0564L18.6071 6.17952C18.6071 6.17951 18.6071 6.17949 18.6071 6.17948C18.4521 6.02668 18.217 5.93883 17.9837 5.93055C17.7492 5.92222 17.4994 5.99396 17.324 6.1831C17.0169 6.51415 16.993 7.02195 17.3275 7.35188L17.3275 7.35193L20.0654 10.0486L9.43051 10.0486C9.19161 10.0486 8.98443 10.1595 8.83875 10.3132C8.69413 10.4658 8.60208 10.6691 8.60208 10.8673C8.60208 11.0933 8.71571 11.3033 8.87211 11.4543C9.02826 11.6051 9.23995 11.7095 9.45438 11.7095L20.0654 11.7095L17.3275 14.4062L17.3275 14.4062C16.9765 14.7524 16.9686 15.2925 17.3062 15.6046C17.5115 15.7945 17.7304 15.8952 17.9605 15.8845C18.189 15.874 18.4047 15.7547 18.6071 15.5551L22.5412 11.6787L22.546 11.6743L22.5638 11.6578C22.5789 11.6436 22.6005 11.6232 22.6262 11.5979C22.6777 11.5476 22.7466 11.4777 22.8159 11.3999C22.8847 11.3226 22.956 11.2351 23.0108 11.1497C23.0622 11.0697 23.1123 10.9717 23.1123 10.8785C23.1123 10.7858 23.0626 10.6866 23.0115 10.6048C22.957 10.5176 22.8859 10.4274 22.8172 10.3474C22.7481 10.2669 22.6793 10.1942 22.6279 10.1418C22.6022 10.1155 22.5807 10.0942 22.5655 10.0794L22.5478 10.0622L22.543 10.0576Z" stroke="#EEF4F6" stroke-width="0.224558"/>
</g>
<defs>
<filter id="filter0_d_14_4060" x="0.754419" y="0.0539551" width="15.851" height="25.4499" filterUnits="userSpaceOnUse" color-interpolation-filters="sRGB">
<feFlood flood-opacity="0" result="BackgroundImageFix"/>
<feColorMatrix in="SourceAlpha" type="matrix" values="0 0 0 0 0 0 0 0 0 0 0 0 0 0 0 0 0 0 127 0" result="hardAlpha"/>
<feOffset dx="-0.748527" dy="1.49705"/>
<feGaussianBlur stdDeviation="0.748527"/>
<feComposite in2="hardAlpha" operator="out"/>
<feColorMatrix type="matrix" values="0 0 0 0 0 0 0 0 0 0 0 0 0 0 0 0 0 0 0.25 0"/>
<feBlend mode="normal" in2="BackgroundImageFix" result="effect1_dropShadow_14_4060"/>
<feBlend mode="normal" in="SourceGraphic" in2="effect1_dropShadow_14_4060" result="shape"/>
</filter>
<filter id="filter1_d_14_4060" x="6.99269" y="4.32057" width="17.729" height="13.1741" filterUnits="userSpaceOnUse" color-interpolation-filters="sRGB">
<feFlood flood-opacity="0" result="BackgroundImageFix"/>
<feColorMatrix in="SourceAlpha" type="matrix" values="0 0 0 0 0 0 0 0 0 0 0 0 0 0 0 0 0 0 127 0" result="hardAlpha"/>
<feOffset/>
<feGaussianBlur stdDeviation="0.748527"/>
<feComposite in2="hardAlpha" operator="out"/>
<feColorMatrix type="matrix" values="0 0 0 0 0 0 0 0 0 0 0 0 0 0 0 0 0 0 1 0"/>
<feBlend mode="normal" in2="BackgroundImageFix" result="effect1_dropShadow_14_4060"/>
<feBlend mode="normal" in="SourceGraphic" in2="effect1_dropShadow_14_4060" result="shape"/>
</filter>
</defs>
</svg>
