<svg width="24" height="26" viewBox="0 0 24 26" fill="none" xmlns="http://www.w3.org/2000/svg">
<g filter="url(#filter0_d_14_3992)">
<path fill-rule="evenodd" clip-rule="evenodd" d="M14.4455 0.614651C14.5652 0.688847 14.6742 0.761235 14.7682 0.826148L16.525 2.1461L19.9028 4.68402C20.0087 4.76846 20.1116 4.85004 20.2115 4.9293L20.2116 4.92942C21.2537 5.75604 21.9791 6.3315 22.5826 7.27957C22.9183 7.80688 22.9864 8.75344 23 9.06769V18.5829C22.9936 18.8 22.9442 19.8646 22.5802 20.4364C21.9077 21.493 21.14 21.6982 19.6315 21.6982H23V21.6997H17.9504C17.1296 21.6951 16.7048 21.5718 16.3316 20.9856C16.1405 20.6853 16.1026 20.145 16.0952 19.9703V15.2712H9.90475L9.90475 19.9141C9.90475 19.9141 9.89681 20.624 9.66666 20.9856C9.2935 21.5718 8.86861 21.6951 8.0478 21.6997H3V5.98542H3.07394L3 6.01776V9.17227C3 9.17227 3.01404 7.91833 3.42066 7.27957C4.02416 6.33151 4.7496 5.75605 5.79165 4.92942L5.79165 4.92942C5.91092 4.83481 6.03433 4.73691 6.16219 4.63478L6.13674 4.64591L8.04967 3.10776L10.4058 1.21324L10.4298 1.1939C10.424 1.20057 10.421 1.20409 10.421 1.20409C10.5169 1.12784 10.61 1.05161 10.7016 0.976611C10.7313 0.95226 10.7609 0.92804 10.7904 0.903991L11.01 0.727412C11.5317 0.317123 12.0512 -0.00489124 12.8163 5.62518e-05C13.2623 0.00294 13.7874 0.234258 14.2237 0.482688L14.4455 0.614651ZM23 5.98542V6.01632L22.9294 5.98542H23ZM10.738 21.6997H15.2602L15.2602 21.6998H10.7381L10.738 21.6997ZM3.00001 21.6982H6.36942C4.86095 21.6982 4.09324 21.493 3.42066 20.4364C3.01404 19.7976 3.00001 18.5437 3.00001 18.5437V21.6982Z" fill="#EEF4F6"/>
<path d="M9.9019 17.056L9.9019 15.2614L12.627 15.2614C11.9061 15.2614 10.8755 15.3778 10.4853 15.772C10.0951 16.1662 9.9019 16.5558 9.9019 17.056Z" fill="#EEF4F6"/>
<path d="M16.1547 17.056L16.1547 15.2614L13.4297 15.2614C14.1506 15.2614 15.1811 15.3778 15.5714 15.772C15.9616 16.1662 16.1547 16.5558 16.1547 17.056Z" fill="#EEF4F6"/>
</g>
<defs>
<filter id="filter0_d_14_3992" x="0" y="0" width="24" height="25.6998" filterUnits="userSpaceOnUse" color-interpolation-filters="sRGB">
<feFlood flood-opacity="0" result="BackgroundImageFix"/>
<feColorMatrix in="SourceAlpha" type="matrix" values="0 0 0 0 0 0 0 0 0 0 0 0 0 0 0 0 0 0 127 0" result="hardAlpha"/>
<feOffset dx="-1" dy="2"/>
<feGaussianBlur stdDeviation="1"/>
<feComposite in2="hardAlpha" operator="out"/>
<feColorMatrix type="matrix" values="0 0 0 0 0 0 0 0 0 0 0 0 0 0 0 0 0 0 0.25 0"/>
<feBlend mode="normal" in2="BackgroundImageFix" result="effect1_dropShadow_14_3992"/>
<feBlend mode="normal" in="SourceGraphic" in2="effect1_dropShadow_14_3992" result="shape"/>
</filter>
</defs>
</svg>
