<svg width="26" height="22" viewBox="0 0 26 22" fill="none" xmlns="http://www.w3.org/2000/svg">
<g filter="url(#filter0_d_14_4008)">
<path d="M3 2.27343C3 1.4043 3.70458 0.699722 4.57371 0.699722H13.6485C14.5176 0.699722 15.2222 1.4043 15.2222 2.27343V2.79268C15.2222 3.66181 14.5176 4.36639 13.6485 4.36639H9.05519C8.18606 4.36639 7.48148 5.07096 7.48148 5.9401V11.3482C7.48148 12.2174 6.77691 12.9219 5.90777 12.9219H4.57371C3.70458 12.9219 3 12.2174 3 11.3482V2.27343Z" fill="#FE9016"/>
<path fill-rule="evenodd" clip-rule="evenodd" d="M6.98996 2.32936C5.68626 2.32936 4.62939 3.38622 4.62939 4.68993V16.2651C4.62939 17.5688 5.68626 18.6257 6.98996 18.6257H22.6392C23.9429 18.6257 24.9998 17.5688 24.9998 16.2651V4.68993C24.9998 3.38622 23.9429 2.32936 22.6392 2.32936H6.98996ZM9.11097 6.4034C8.88597 6.4034 8.70356 6.58581 8.70356 6.81081C8.70356 7.03582 8.88597 7.21822 9.11097 7.21822H13.9999C14.2249 7.21822 14.4073 7.03582 14.4073 6.81081C14.4073 6.58581 14.2249 6.4034 13.9999 6.4034H9.11097ZM8.70356 9.25528C8.70356 9.03028 8.88597 8.84787 9.11097 8.84787H20.5184C20.7434 8.84787 20.9258 9.03028 20.9258 9.25528C20.9258 9.48029 20.7434 9.66269 20.5184 9.66269H9.11097C8.88597 9.66269 8.70356 9.48029 8.70356 9.25528ZM9.11097 10.4775C8.88597 10.4775 8.70356 10.6599 8.70356 10.8849C8.70356 11.1099 8.88597 11.2923 9.11097 11.2923H20.5184C20.7434 11.2923 20.9258 11.1099 20.9258 10.8849C20.9258 10.6599 20.7434 10.4775 20.5184 10.4775H9.11097ZM8.70356 12.5145C8.70356 12.2895 8.88597 12.1071 9.11097 12.1071H20.5184C20.7434 12.1071 20.9258 12.2895 20.9258 12.5145C20.9258 12.7395 20.7434 12.922 20.5184 12.922H9.11097C8.88597 12.922 8.70356 12.7395 8.70356 12.5145ZM9.11097 13.7368C8.88597 13.7368 8.70356 13.9192 8.70356 14.1442C8.70356 14.3692 8.88597 14.5516 9.11097 14.5516H20.5184C20.7434 14.5516 20.9258 14.3692 20.9258 14.1442C20.9258 13.9192 20.7434 13.7368 20.5184 13.7368H9.11097Z" fill="#EEF4F6"/>
</g>
<defs>
<filter id="filter0_d_14_4008" x="0.639431" y="0.699722" width="25.1474" height="21.0734" filterUnits="userSpaceOnUse" color-interpolation-filters="sRGB">
<feFlood flood-opacity="0" result="BackgroundImageFix"/>
<feColorMatrix in="SourceAlpha" type="matrix" values="0 0 0 0 0 0 0 0 0 0 0 0 0 0 0 0 0 0 127 0" result="hardAlpha"/>
<feOffset dx="-0.786856" dy="1.57371"/>
<feGaussianBlur stdDeviation="0.786856"/>
<feComposite in2="hardAlpha" operator="out"/>
<feColorMatrix type="matrix" values="0 0 0 0 0 0 0 0 0 0 0 0 0 0 0 0 0 0 0.25 0"/>
<feBlend mode="normal" in2="BackgroundImageFix" result="effect1_dropShadow_14_4008"/>
<feBlend mode="normal" in="SourceGraphic" in2="effect1_dropShadow_14_4008" result="shape"/>
</filter>
</defs>
</svg>
