<svg width="24" height="18" viewBox="0 0 24 18" fill="none" xmlns="http://www.w3.org/2000/svg">
<path d="M0.154785 2.19935C0.154785 1.33021 0.85936 0.625641 1.7285 0.625641H19.9683C20.8374 0.625641 21.542 1.33022 21.542 2.19935V2.71859C21.542 3.58773 20.8374 4.29231 19.9683 4.29231H6.20998C5.34084 4.29231 4.63627 4.99688 4.63627 5.86602V11.2742C4.63627 12.1433 3.93169 12.8479 3.06255 12.8479H1.7285C0.859361 12.8479 0.154785 12.1433 0.154785 11.2742V2.19935Z" fill="#FE9016"/>
<rect x="1.8374" y="2.28165" width="22.0073" height="15.24" rx="2" fill="#EEF4F6"/>
<path fill-rule="evenodd" clip-rule="evenodd" d="M3.8374 6.3446H6.41144C8.05315 6.3446 9.00575 7.19587 9.00575 8.53356C9.00575 9.87125 7.95181 10.7225 6.41144 10.7225H5.25616V13.4384H3.8374V10.7225V9.26321V6.3446ZM5.25616 9.54685V9.26321H5.25607V7.47951H6.40682C7.14076 7.47951 7.56663 7.8815 7.56663 8.51319C7.56663 9.14487 7.22207 9.54685 6.40682 9.54685H5.25616Z" fill="#343C3F"/>
<path fill-rule="evenodd" clip-rule="evenodd" d="M11.8475 6.3446H9.27344V9.2632V10.7225V13.4384H10.6922V10.7225H11.3932L12.9215 13.4301H14.5727L12.8981 10.5701C13.847 10.2688 14.4418 9.53846 14.4418 8.53356C14.4418 7.19587 13.4892 6.3446 11.8475 6.3446ZM11.8431 7.47951H10.6924V9.54685H11.8431C12.6584 9.54685 13.0029 9.14487 13.0029 8.51319C13.0029 7.8815 12.577 7.47951 11.8431 7.47951Z" fill="#343C3F"/>
<path fill-rule="evenodd" clip-rule="evenodd" d="M18.237 13.5193C20.2294 13.5193 21.8445 11.8996 21.8445 9.90166C21.8445 7.90368 20.2294 6.284 18.237 6.284C16.2446 6.284 14.6294 7.90368 14.6294 9.90166C14.6294 11.8996 16.2446 13.5193 18.237 13.5193ZM18.2372 12.1874C19.3776 12.1874 20.3021 11.164 20.3021 9.90164C20.3021 8.63924 19.3776 7.61585 18.2372 7.61585C17.0968 7.61585 16.1723 8.63924 16.1723 9.90164C16.1723 11.164 17.0968 12.1874 18.2372 12.1874Z" fill="#343C3F"/>
</svg>
