<svg width="24" height="24" viewBox="0 0 24 24" fill="none" xmlns="http://www.w3.org/2000/svg">
<g filter="url(#filter0_d_14_4032)">
<path fill-rule="evenodd" clip-rule="evenodd" d="M7.32767 5.24499H7.70741C7.97389 2.5611 10.2383 0.464966 12.9923 0.464966C15.7463 0.464966 18.0108 2.5611 18.2773 5.24499H18.7052C19.1719 5.25178 19.4802 5.28686 19.6901 5.46814C19.9504 5.69291 20.5112 7.62948 20.8187 8.78469L20.5307 7.70289L22.7199 15.7422L22.6145 15.3952C23.0055 16.6885 23.2007 17.9081 22.6997 18.5415C22.4226 18.8917 22.0372 19.0146 21.607 19.054H4.39261C3.96238 19.0146 3.577 18.8917 3.29997 18.5415C2.91286 18.0522 2.94136 17.2129 3.15464 16.2601L5.77648 6.83923C5.99454 6.15496 6.20862 5.58403 6.34278 5.46814C6.55266 5.28686 6.86099 5.25178 7.32767 5.24499ZM12.995 1.36779C15.2292 1.36779 17.0664 3.06787 17.2835 5.24499H8.70642C8.92349 3.06787 10.7607 1.36779 12.995 1.36779ZM10.1199 9.12219C10.4865 9.12219 10.7838 8.82495 10.7838 8.45829C10.7838 8.09164 10.4865 7.7944 10.1199 7.7944C9.7532 7.7944 9.45597 8.09164 9.45597 8.45829C9.45597 8.82495 9.7532 9.12219 10.1199 9.12219ZM16.5464 8.45829C16.5464 8.82495 16.2491 9.12219 15.8825 9.12219C15.5158 9.12219 15.2186 8.82495 15.2186 8.45829C15.2186 8.09164 15.5158 7.7944 15.8825 7.7944C16.2491 7.7944 16.5464 8.09164 16.5464 8.45829Z" fill="#EEF4F6"/>
</g>
<defs>
<filter id="filter0_d_14_4032" x="0" y="0.464966" width="23.9995" height="22.589" filterUnits="userSpaceOnUse" color-interpolation-filters="sRGB">
<feFlood flood-opacity="0" result="BackgroundImageFix"/>
<feColorMatrix in="SourceAlpha" type="matrix" values="0 0 0 0 0 0 0 0 0 0 0 0 0 0 0 0 0 0 127 0" result="hardAlpha"/>
<feOffset dx="-1" dy="2"/>
<feGaussianBlur stdDeviation="1"/>
<feComposite in2="hardAlpha" operator="out"/>
<feColorMatrix type="matrix" values="0 0 0 0 0 0 0 0 0 0 0 0 0 0 0 0 0 0 0.25 0"/>
<feBlend mode="normal" in2="BackgroundImageFix" result="effect1_dropShadow_14_4032"/>
<feBlend mode="normal" in="SourceGraphic" in2="effect1_dropShadow_14_4032" result="shape"/>
</filter>
</defs>
</svg>
